<svg width="219" height="50" viewBox="0 0 219 50" fill="none" xmlns="http://www.w3.org/2000/svg">
<rect x="24.4688" y="9" width="159.532" height="32" fill="#1B5162"/>
<rect y="9" width="48.9362" height="32" rx="16" fill="#1B5162"/>
<path d="M15.4087 30V22.2178H12.5903V20.8403H19.8711V22.2178H17.0464V30H15.4087ZM20.6074 30V23.062H22.188V24.1284H22.2959C22.5308 23.3857 23.1655 22.9478 24.0796 22.9478C24.3208 22.9478 24.5684 22.9795 24.7207 23.0239V24.4395C24.4668 24.3887 24.2065 24.3506 23.9336 24.3506C22.8799 24.3506 22.188 24.979 22.188 25.9692V30H20.6074ZM26.8599 32.4375C26.6694 32.4375 26.4473 32.4312 26.2568 32.4121V31.1997C26.3838 31.2124 26.5615 31.2188 26.7266 31.2188C27.374 31.2188 27.7612 30.9521 27.9326 30.3237L28.0151 30.0063L25.5332 23.062H27.2598L28.8784 28.4829H28.999L30.6113 23.062H32.2744L29.7861 30.146C29.1895 31.8853 28.396 32.4375 26.8599 32.4375ZM40.0947 30.1396C38.0127 30.1396 36.7559 28.7812 36.7559 26.5342V26.5215C36.7559 24.2935 38.0317 22.9287 40.0947 22.9287C42.1641 22.9287 43.4336 24.2871 43.4336 26.5215V26.5342C43.4336 28.7812 42.1704 30.1396 40.0947 30.1396ZM40.0947 28.8574C41.1929 28.8574 41.8149 28.0005 41.8149 26.5405V26.5278C41.8149 25.0679 41.1865 24.2046 40.0947 24.2046C38.9966 24.2046 38.3682 25.0679 38.3682 26.5278V26.5405C38.3682 28.0005 38.9966 28.8574 40.0947 28.8574ZM47.3184 30.1396C45.7568 30.1396 44.957 29.2002 44.957 27.5498V23.062H46.5376V27.188C46.5376 28.2607 46.9375 28.8066 47.8896 28.8066C48.9116 28.8066 49.4575 28.1465 49.4575 27.1055V23.062H51.0381V30H49.4575V28.9463H49.3496C49.0259 29.689 48.3213 30.1396 47.3184 30.1396ZM52.9678 30V23.062H54.5483V24.1284H54.6562C54.8911 23.3857 55.5259 22.9478 56.4399 22.9478C56.6812 22.9478 56.9287 22.9795 57.0811 23.0239V24.4395C56.8271 24.3887 56.5669 24.3506 56.2939 24.3506C55.2402 24.3506 54.5483 24.979 54.5483 25.9692V30H52.9678ZM61.3276 30L64.5776 20.8403H66.4248L69.6748 30H67.9609L67.1929 27.6323H63.8032L63.0415 30H61.3276ZM65.4473 22.5415L64.2158 26.3691H66.7866L65.5552 22.5415H65.4473ZM71.8965 21.9004C71.376 21.9004 70.9507 21.4878 70.9507 20.9673C70.9507 20.4531 71.376 20.0342 71.8965 20.0342C72.4106 20.0342 72.8359 20.4531 72.8359 20.9673C72.8359 21.4878 72.4106 21.9004 71.8965 21.9004ZM71.103 30V23.062H72.6836V30H71.103ZM77.5776 30L80.8276 20.8403H82.6748L85.9248 30H84.2109L83.4429 27.6323H80.0532L79.2915 30H77.5776ZM81.6973 22.5415L80.4658 26.3691H83.0366L81.8052 22.5415H81.6973ZM89.7905 30.1396C88.0259 30.1396 86.9595 29.3271 86.8262 28.1528V28.1401H88.394L88.4004 28.1528C88.5654 28.6353 89.0288 28.9717 89.8159 28.9717C90.603 28.9717 91.1489 28.6162 91.1489 28.0957V28.083C91.1489 27.6768 90.8442 27.4102 90.0825 27.2388L88.959 26.9849C87.6387 26.6929 87.0103 26.0708 87.0103 25.0488V25.0425C87.0103 23.792 88.1528 22.9287 89.7905 22.9287C91.479 22.9287 92.4883 23.7666 92.5898 24.8901V24.9028H91.1045L91.0981 24.8838C90.9839 24.4458 90.5269 24.0903 89.7842 24.0903C89.0796 24.0903 88.5718 24.4331 88.5718 24.9536V24.96C88.5718 25.3662 88.8638 25.6138 89.6128 25.7852L90.7363 26.0327C92.0947 26.3374 92.7358 26.915 92.7358 27.9243V27.937C92.7358 29.2573 91.498 30.1396 89.7905 30.1396ZM96.8237 30.1396C95.0591 30.1396 93.9927 29.3271 93.8594 28.1528V28.1401H95.4272L95.4336 28.1528C95.5986 28.6353 96.062 28.9717 96.8491 28.9717C97.6362 28.9717 98.1821 28.6162 98.1821 28.0957V28.083C98.1821 27.6768 97.8774 27.4102 97.1157 27.2388L95.9922 26.9849C94.6719 26.6929 94.0435 26.0708 94.0435 25.0488V25.0425C94.0435 23.792 95.186 22.9287 96.8237 22.9287C98.5122 22.9287 99.5215 23.7666 99.623 24.8901V24.9028H98.1377L98.1313 24.8838C98.0171 24.4458 97.5601 24.0903 96.8174 24.0903C96.1128 24.0903 95.605 24.4331 95.605 24.9536V24.96C95.605 25.3662 95.897 25.6138 96.646 25.7852L97.7695 26.0327C99.1279 26.3374 99.769 26.915 99.769 27.9243V27.937C99.769 29.2573 98.5312 30.1396 96.8237 30.1396ZM102.175 21.9004C101.654 21.9004 101.229 21.4878 101.229 20.9673C101.229 20.4531 101.654 20.0342 102.175 20.0342C102.689 20.0342 103.114 20.4531 103.114 20.9673C103.114 21.4878 102.689 21.9004 102.175 21.9004ZM101.381 30V23.062H102.962V30H101.381ZM107.526 30.1396C105.761 30.1396 104.695 29.3271 104.562 28.1528V28.1401H106.129L106.136 28.1528C106.301 28.6353 106.764 28.9717 107.551 28.9717C108.338 28.9717 108.884 28.6162 108.884 28.0957V28.083C108.884 27.6768 108.58 27.4102 107.818 27.2388L106.694 26.9849C105.374 26.6929 104.746 26.0708 104.746 25.0488V25.0425C104.746 23.792 105.888 22.9287 107.526 22.9287C109.214 22.9287 110.224 23.7666 110.325 24.8901V24.9028H108.84L108.833 24.8838C108.719 24.4458 108.262 24.0903 107.52 24.0903C106.815 24.0903 106.307 24.4331 106.307 24.9536V24.96C106.307 25.3662 106.599 25.6138 107.348 25.7852L108.472 26.0327C109.83 26.3374 110.471 26.915 110.471 27.9243V27.937C110.471 29.2573 109.233 30.1396 107.526 30.1396ZM114.743 30.0317C113.15 30.0317 112.496 29.4985 112.496 28.1592V24.2871H111.417V23.062H112.496V21.3608H114.102V23.062H115.568V24.2871H114.102V27.7847C114.102 28.4766 114.375 28.7686 115.035 28.7686C115.257 28.7686 115.378 28.7622 115.568 28.7432V29.9619C115.34 30.0063 115.048 30.0317 114.743 30.0317ZM119.034 30.1143C117.714 30.1143 116.755 29.3018 116.755 28.0386V28.0259C116.755 26.7881 117.701 26.0645 119.39 25.9629L121.173 25.855V25.2583C121.173 24.5664 120.723 24.1855 119.872 24.1855C119.148 24.1855 118.679 24.4458 118.52 24.9028L118.514 24.9282H117.022L117.028 24.8711C117.181 23.7031 118.298 22.9287 119.948 22.9287C121.732 22.9287 122.735 23.792 122.735 25.2583V30H121.173V29.0479H121.065C120.685 29.7207 119.948 30.1143 119.034 30.1143ZM118.317 27.9624C118.317 28.5527 118.818 28.9019 119.517 28.9019C120.469 28.9019 121.173 28.2798 121.173 27.4546V26.896L119.612 26.9976C118.729 27.0547 118.317 27.3784 118.317 27.9497V27.9624ZM124.633 30V23.062H126.213V24.1221H126.321C126.651 23.3794 127.318 22.9287 128.321 22.9287C129.87 22.9287 130.714 23.8618 130.714 25.5122V30H129.133V25.8804C129.133 24.8013 128.695 24.2554 127.737 24.2554C126.797 24.2554 126.213 24.9155 126.213 25.9565V30H124.633ZM135.31 30.0317C133.716 30.0317 133.062 29.4985 133.062 28.1592V24.2871H131.983V23.062H133.062V21.3608H134.668V23.062H136.135V24.2871H134.668V27.7847C134.668 28.4766 134.941 28.7686 135.602 28.7686C135.824 28.7686 135.944 28.7622 136.135 28.7432V29.9619C135.906 30.0063 135.614 30.0317 135.31 30.0317Z" fill="white"/>
<path fill-rule="evenodd" clip-rule="evenodd" d="M160.061 25.0303L153.03 32.0607L151.97 31L157.189 25.7803L146 25.7803L146 24.2803L157.189 24.2803L151.97 19.0607L153.03 18L160.061 25.0303Z" fill="white"/>
</svg>
