<?xml version="1.0" standalone="no"?>
<!DOCTYPE svg PUBLIC "-//W3C//DTD SVG 20010904//EN"
 "http://www.w3.org/TR/2001/REC-SVG-20010904/DTD/svg10.dtd">
<svg version="1.0" xmlns="http://www.w3.org/2000/svg"
 width="1024.000000pt" height="32.000000pt" viewBox="0 0 1024.000000 32.000000"
 preserveAspectRatio="xMidYMid meet">

<g transform="translate(0.000000,32.000000) scale(0.100000,-0.100000)"
fill="#000000" stroke="none">
<path d="M105 215 c-50 -49 -15 -135 55 -135 70 0 105 86 55 135 -15 16 -36
25 -55 25 -19 0 -40 -9 -55 -25z m99 -11 c20 -20 20 -68 0 -88 -20 -20 -68
-20 -88 0 -9 8 -16 28 -16 44 0 36 24 60 60 60 16 0 36 -7 44 -16z"/>
<path d="M150 150 c0 -11 5 -20 10 -20 6 0 10 9 10 20 0 11 -4 20 -10 20 -5 0
-10 -9 -10 -20z"/>
</g>
</svg>
