<svg width="22" height="22" viewBox="0 0 22 22" fill="none" xmlns="http://www.w3.org/2000/svg">
<path fill-rule="evenodd" clip-rule="evenodd" d="M2.75003 11C2.75003 6.44365 6.44368 2.75 11 2.75C15.5564 2.75 19.25 6.44365 19.25 11C19.25 15.5563 15.5564 19.25 11 19.25C8.78292 19.25 6.56061 19.25 4.34102 19.25L5.1664 18.4246C5.37738 18.2136 5.49591 17.9275 5.49591 17.6291C5.49591 17.3308 5.37738 17.0446 5.1664 16.8336C3.67221 15.3394 2.75003 13.2785 2.75003 11ZM11 21.5C7.87503 21.5 4.75003 21.5 1.62503 21.5C1.17001 21.5 0.759797 21.2259 0.585668 20.8055C0.41154 20.3851 0.50779 19.9013 0.829538 19.5795L2.82245 17.5866C1.3705 15.7858 0.500033 13.4938 0.500033 11C0.500033 5.20101 5.20104 0.5 11 0.5C16.799 0.5 21.5 5.20101 21.5 11C21.5 16.799 16.799 21.5 11 21.5ZM9.875 15.5V12.125H6.5V9.875H9.875V6.5H12.125V9.875H15.5V12.125H12.125V15.5H9.875Z" fill="white"/>
</svg>
