<svg width="180" height="32" viewBox="0 0 180 32" fill="none" xmlns="http://www.w3.org/2000/svg">
<path d="M0 16C0 7.16344 7.16344 0 16 0H180V32H16C7.16344 32 0 24.8366 0 16V16Z" fill="#1B5162"/>
<path d="M19.4087 21V13.2178H16.5903V11.8403H23.8711V13.2178H21.0464V21H19.4087ZM24.6074 21V14.062H26.188V15.1284H26.2959C26.5308 14.3857 27.1655 13.9478 28.0796 13.9478C28.3208 13.9478 28.5684 13.9795 28.7207 14.0239V15.4395C28.4668 15.3887 28.2065 15.3506 27.9336 15.3506C26.8799 15.3506 26.188 15.979 26.188 16.9692V21H24.6074ZM30.8599 23.4375C30.6694 23.4375 30.4473 23.4312 30.2568 23.4121V22.1997C30.3838 22.2124 30.5615 22.2188 30.7266 22.2188C31.374 22.2188 31.7612 21.9521 31.9326 21.3237L32.0151 21.0063L29.5332 14.062H31.2598L32.8784 19.4829H32.999L34.6113 14.062H36.2744L33.7861 21.146C33.1895 22.8853 32.396 23.4375 30.8599 23.4375ZM44.0947 21.1396C42.0127 21.1396 40.7559 19.7812 40.7559 17.5342V17.5215C40.7559 15.2935 42.0317 13.9287 44.0947 13.9287C46.1641 13.9287 47.4336 15.2871 47.4336 17.5215V17.5342C47.4336 19.7812 46.1704 21.1396 44.0947 21.1396ZM44.0947 19.8574C45.1929 19.8574 45.8149 19.0005 45.8149 17.5405V17.5278C45.8149 16.0679 45.1865 15.2046 44.0947 15.2046C42.9966 15.2046 42.3682 16.0679 42.3682 17.5278V17.5405C42.3682 19.0005 42.9966 19.8574 44.0947 19.8574ZM51.3184 21.1396C49.7568 21.1396 48.957 20.2002 48.957 18.5498V14.062H50.5376V18.188C50.5376 19.2607 50.9375 19.8066 51.8896 19.8066C52.9116 19.8066 53.4575 19.1465 53.4575 18.1055V14.062H55.0381V21H53.4575V19.9463H53.3496C53.0259 20.689 52.3213 21.1396 51.3184 21.1396ZM56.9678 21V14.062H58.5483V15.1284H58.6562C58.8911 14.3857 59.5259 13.9478 60.4399 13.9478C60.6812 13.9478 60.9287 13.9795 61.0811 14.0239V15.4395C60.8271 15.3887 60.5669 15.3506 60.2939 15.3506C59.2402 15.3506 58.5483 15.979 58.5483 16.9692V21H56.9678ZM65.3276 21L68.5776 11.8403H70.4248L73.6748 21H71.9609L71.1929 18.6323H67.8032L67.0415 21H65.3276ZM69.4473 13.5415L68.2158 17.3691H70.7866L69.5552 13.5415H69.4473ZM75.249 21V11.8403H76.8867V21H75.249ZM84.3389 21.1143C83.0186 21.1143 82.0601 20.3018 82.0601 19.0386V19.0259C82.0601 17.7881 83.0059 17.0645 84.6943 16.9629L86.478 16.855V16.2583C86.478 15.5664 86.0273 15.1855 85.1768 15.1855C84.4531 15.1855 83.9834 15.4458 83.8247 15.9028L83.8184 15.9282H82.3267L82.333 15.8711C82.4854 14.7031 83.6025 13.9287 85.2529 13.9287C87.0366 13.9287 88.0396 14.792 88.0396 16.2583V21H86.478V20.0479H86.3701C85.9893 20.7207 85.2529 21.1143 84.3389 21.1143ZM83.6216 18.9624C83.6216 19.5527 84.123 19.9019 84.8213 19.9019C85.7734 19.9019 86.478 19.2798 86.478 18.4546V17.896L84.9165 17.9976C84.0342 18.0547 83.6216 18.3784 83.6216 18.9497V18.9624ZM92.5591 21.1396C90.7944 21.1396 89.728 20.3271 89.5947 19.1528V19.1401H91.1626L91.1689 19.1528C91.334 19.6353 91.7974 19.9717 92.5845 19.9717C93.3716 19.9717 93.9175 19.6162 93.9175 19.0957V19.083C93.9175 18.6768 93.6128 18.4102 92.8511 18.2388L91.7275 17.9849C90.4072 17.6929 89.7788 17.0708 89.7788 16.0488V16.0425C89.7788 14.792 90.9214 13.9287 92.5591 13.9287C94.2476 13.9287 95.2568 14.7666 95.3584 15.8901V15.9028H93.873L93.8667 15.8838C93.7524 15.4458 93.2954 15.0903 92.5527 15.0903C91.8481 15.0903 91.3403 15.4331 91.3403 15.9536V15.96C91.3403 16.3662 91.6323 16.6138 92.3813 16.7852L93.5049 17.0327C94.8633 17.3374 95.5044 17.915 95.5044 18.9243V18.937C95.5044 20.2573 94.2666 21.1396 92.5591 21.1396ZM99.5923 21.1396C97.8276 21.1396 96.7612 20.3271 96.6279 19.1528V19.1401H98.1958L98.2021 19.1528C98.3672 19.6353 98.8306 19.9717 99.6177 19.9717C100.405 19.9717 100.951 19.6162 100.951 19.0957V19.083C100.951 18.6768 100.646 18.4102 99.8843 18.2388L98.7607 17.9849C97.4404 17.6929 96.812 17.0708 96.812 16.0488V16.0425C96.812 14.792 97.9546 13.9287 99.5923 13.9287C101.281 13.9287 102.29 14.7666 102.392 15.8901V15.9028H100.906L100.9 15.8838C100.786 15.4458 100.329 15.0903 99.5859 15.0903C98.8813 15.0903 98.3735 15.4331 98.3735 15.9536V15.96C98.3735 16.3662 98.6655 16.6138 99.4146 16.7852L100.538 17.0327C101.896 17.3374 102.538 17.915 102.538 18.9243V18.937C102.538 20.2573 101.3 21.1396 99.5923 21.1396ZM104.943 12.9004C104.423 12.9004 103.998 12.4878 103.998 11.9673C103.998 11.4531 104.423 11.0342 104.943 11.0342C105.458 11.0342 105.883 11.4531 105.883 11.9673C105.883 12.4878 105.458 12.9004 104.943 12.9004ZM104.15 21V14.062H105.73V21H104.15ZM110.294 21.1396C108.53 21.1396 107.463 20.3271 107.33 19.1528V19.1401H108.898L108.904 19.1528C109.069 19.6353 109.533 19.9717 110.32 19.9717C111.107 19.9717 111.653 19.6162 111.653 19.0957V19.083C111.653 18.6768 111.348 18.4102 110.586 18.2388L109.463 17.9849C108.143 17.6929 107.514 17.0708 107.514 16.0488V16.0425C107.514 14.792 108.657 13.9287 110.294 13.9287C111.983 13.9287 112.992 14.7666 113.094 15.8901V15.9028H111.608L111.602 15.8838C111.488 15.4458 111.031 15.0903 110.288 15.0903C109.583 15.0903 109.076 15.4331 109.076 15.9536V15.96C109.076 16.3662 109.368 16.6138 110.117 16.7852L111.24 17.0327C112.599 17.3374 113.24 17.915 113.24 18.9243V18.937C113.24 20.2573 112.002 21.1396 110.294 21.1396ZM117.512 21.0317C115.918 21.0317 115.265 20.4985 115.265 19.1592V15.2871H114.186V14.062H115.265V12.3608H116.871V14.062H118.337V15.2871H116.871V18.7847C116.871 19.4766 117.144 19.7686 117.804 19.7686C118.026 19.7686 118.146 19.7622 118.337 19.7432V20.9619C118.108 21.0063 117.816 21.0317 117.512 21.0317ZM121.803 21.1143C120.482 21.1143 119.524 20.3018 119.524 19.0386V19.0259C119.524 17.7881 120.47 17.0645 122.158 16.9629L123.942 16.855V16.2583C123.942 15.5664 123.491 15.1855 122.641 15.1855C121.917 15.1855 121.447 15.4458 121.289 15.9028L121.282 15.9282H119.791L119.797 15.8711C119.949 14.7031 121.066 13.9287 122.717 13.9287C124.5 13.9287 125.503 14.792 125.503 16.2583V21H123.942V20.0479H123.834C123.453 20.7207 122.717 21.1143 121.803 21.1143ZM121.085 18.9624C121.085 19.5527 121.587 19.9019 122.285 19.9019C123.237 19.9019 123.942 19.2798 123.942 18.4546V17.896L122.38 17.9976C121.498 18.0547 121.085 18.3784 121.085 18.9497V18.9624ZM127.401 21V14.062H128.982V15.1221H129.09C129.42 14.3794 130.086 13.9287 131.089 13.9287C132.638 13.9287 133.482 14.8618 133.482 16.5122V21H131.902V16.8804C131.902 15.8013 131.464 15.2554 130.505 15.2554C129.566 15.2554 128.982 15.9155 128.982 16.9565V21H127.401ZM138.078 21.0317C136.485 21.0317 135.831 20.4985 135.831 19.1592V15.2871H134.752V14.062H135.831V12.3608H137.437V14.062H138.903V15.2871H137.437V18.7847C137.437 19.4766 137.71 19.7686 138.37 19.7686C138.592 19.7686 138.713 19.7622 138.903 19.7432V20.9619C138.675 21.0063 138.383 21.0317 138.078 21.0317Z" fill="white"/>
<path fill-rule="evenodd" clip-rule="evenodd" d="M163.061 16.0303L156.03 23.0607L154.97 22L160.189 16.7803L149 16.7803L149 15.2803L160.189 15.2803L154.97 10.0607L156.03 9L163.061 16.0303Z" fill="white"/>
</svg>
